<svg width="528" height="98" viewBox="0 0 528 98" fill="none" xmlns="http://www.w3.org/2000/svg">
<path d="M43.2188 72.7656C40.4062 75.5781 37.4375 77.5 34.3125 78.5312C31.2188 79.5625 27.8594 80.0781 24.2344 80.0781C20.5781 80.0781 17.25 79.5312 14.25 78.4375C11.2812 77.3438 8.75 75.8125 6.65625 73.8438C4.59375 71.8438 3 69.4375 1.875 66.625C0.78125 63.8125 0.234375 60.6719 0.234375 57.2031C0.234375 53.8906 0.78125 50.8281 1.875 48.0156C3 45.1719 4.5 42.75 6.375 40.75C8.28125 38.7188 10.5156 37.1406 13.0781 36.0156C15.6406 34.8594 18.3594 34.2812 21.2344 34.2812C24.2344 34.2812 26.8438 34.9062 29.0625 36.1562C31.2812 37.4062 32.8906 39.2344 33.8906 41.6406V35.3125H42.5625V55.6562H33.8906C33.8906 51.8125 32.8281 48.75 30.7031 46.4688C28.6094 44.1562 25.875 43 22.5 43C21.1562 43 19.7344 43.2812 18.2344 43.8438C16.7656 44.375 15.4062 45.2188 14.1562 46.375C12.9375 47.5312 11.9219 49 11.1094 50.7812C10.2969 52.5625 9.89062 54.7031 9.89062 57.2031C9.89062 59.6406 10.2812 61.75 11.0625 63.5312C11.8438 65.2812 12.8594 66.7344 14.1094 67.8906C15.3906 69.0156 16.8906 69.875 18.6094 70.4688C20.3594 71.0312 22.1562 71.3125 24 71.3125C27.1562 71.3125 29.8906 70.8281 32.2031 69.8594C34.5469 68.8594 36.5625 67.5469 38.25 65.9219L43.2188 72.7656ZM94.9688 79H85.2656V52.0469C85.2656 48.6406 84.625 46.2812 83.3438 44.9688C82.0625 43.6562 80.2031 43 77.7656 43C74.1719 43 71.2344 44.4531 68.9531 47.3594C66.7031 50.2656 65.5781 54.2812 65.5781 59.4062V79H55.875V17.8281H65.5781V46.2812C66.5469 42.5 68.3438 39.5625 70.9688 37.4688C73.5938 35.3438 76.8281 34.2812 80.6719 34.2812C85.1406 34.2812 88.6406 35.7344 91.1719 38.6406C93.7031 41.5469 94.9688 46.0156 94.9688 52.0469V79ZM105.797 66.4375C105.797 63.875 106.484 61.6406 107.859 59.7344C109.234 57.7969 111.031 56.1875 113.25 54.9062C115.5 53.625 118.062 52.6719 120.938 52.0469C123.844 51.3906 126.797 51.0625 129.797 51.0625C131.453 51.0625 132.875 51.0938 134.062 51.1562C135.25 51.2188 136.453 51.3125 137.672 51.4375V49.7031C137.672 47.4219 136.781 45.7188 135 44.5938C133.25 43.4688 130.938 42.9062 128.062 42.9062C125.438 42.9062 122.766 43.2812 120.047 44.0312C117.328 44.75 114.75 45.8125 112.312 47.2188L108.375 39.625C111.25 37.9688 114.328 36.6719 117.609 35.7344C120.922 34.7656 124.406 34.2812 128.062 34.2812C130.438 34.2812 132.766 34.5469 135.047 35.0781C137.359 35.6094 139.422 36.4844 141.234 37.7031C143.078 38.9219 144.547 40.5156 145.641 42.4844C146.734 44.4219 147.281 46.8281 147.281 49.7031V79H137.672V72.5781C136.141 74.9531 133.875 76.7969 130.875 78.1094C127.906 79.4219 124.703 80.0781 121.266 80.0781C119.141 80.0781 117.125 79.7812 115.219 79.1875C113.344 78.625 111.719 77.7656 110.344 76.6094C108.969 75.4531 107.859 74.0312 107.016 72.3438C106.203 70.625 105.797 68.6562 105.797 66.4375ZM123.75 71.4062C125.656 71.4062 127.438 71.1719 129.094 70.7031C130.781 70.2031 132.266 69.5312 133.547 68.6875C134.828 67.8125 135.828 66.7656 136.547 65.5469C137.297 64.3281 137.672 62.9844 137.672 61.5156V59.875C136.141 59.625 134.703 59.4844 133.359 59.4531C132.016 59.4219 130.828 59.4062 129.797 59.4062C125.047 59.4062 121.453 60.0312 119.016 61.2812C116.609 62.5312 115.406 64.0781 115.406 65.9219C115.406 69.5781 118.188 71.4062 123.75 71.4062ZM202.547 65.0781C202.047 69.6719 200.234 73.3281 197.109 76.0469C194.016 78.7344 190.141 80.0781 185.484 80.0781C182.922 80.0781 180.578 79.6562 178.453 78.8125C176.328 77.9688 174.516 76.7969 173.016 75.2969C171.516 73.7969 170.344 72 169.5 69.9062C168.688 67.7812 168.281 65.4688 168.281 62.9688V44.0781H158.391V35.3125H168.281V17.8281H177.984V35.3125H196.312V44.0781H177.984V62.9688C177.984 65.7812 178.672 67.875 180.047 69.25C181.422 70.625 183.234 71.3125 185.484 71.3125C188.234 71.3125 190.281 70.5156 191.625 68.9219C192.969 67.3281 193.766 65.4062 194.016 63.1562L202.547 65.0781ZM254.953 65.0781C254.453 69.6719 252.641 73.3281 249.516 76.0469C246.422 78.7344 242.547 80.0781 237.891 80.0781C235.328 80.0781 232.984 79.6562 230.859 78.8125C228.734 77.9688 226.922 76.7969 225.422 75.2969C223.922 73.7969 222.75 72 221.906 69.9062C221.094 67.7812 220.688 65.4688 220.688 62.9688V44.0781H210.797V35.3125H220.688V17.8281H230.391V35.3125H248.719V44.0781H230.391V62.9688C230.391 65.7812 231.078 67.875 232.453 69.25C233.828 70.625 235.641 71.3125 237.891 71.3125C240.641 71.3125 242.688 70.5156 244.031 68.9219C245.375 67.3281 246.172 65.4062 246.422 63.1562L254.953 65.0781ZM306.516 35.3125L287.672 87.5312C286.266 91.3125 284.219 93.9062 281.531 95.3125C278.844 96.7188 275.641 97.4219 271.922 97.4219C270.641 97.4219 269.266 97.2969 267.797 97.0469C266.328 96.7969 264.797 96.375 263.203 95.7812L265.219 86.875C266.562 87.375 267.797 87.7188 268.922 87.9062C270.047 88.125 271.047 88.2344 271.922 88.2344C274.828 88.2344 276.812 86.9531 277.875 84.3906L279.609 80.1719L262.922 35.3125H273L285 68.3594L296.109 35.3125H306.516ZM367.828 66.4375C367.828 63.875 368.516 61.6406 369.891 59.7344C371.266 57.7969 373.062 56.1875 375.281 54.9062C377.531 53.625 380.094 52.6719 382.969 52.0469C385.875 51.3906 388.828 51.0625 391.828 51.0625C393.484 51.0625 394.906 51.0938 396.094 51.1562C397.281 51.2188 398.484 51.3125 399.703 51.4375V49.7031C399.703 47.4219 398.812 45.7188 397.031 44.5938C395.281 43.4688 392.969 42.9062 390.094 42.9062C387.469 42.9062 384.797 43.2812 382.078 44.0312C379.359 44.75 376.781 45.8125 374.344 47.2188L370.406 39.625C373.281 37.9688 376.359 36.6719 379.641 35.7344C382.953 34.7656 386.438 34.2812 390.094 34.2812C392.469 34.2812 394.797 34.5469 397.078 35.0781C399.391 35.6094 401.453 36.4844 403.266 37.7031C405.109 38.9219 406.578 40.5156 407.672 42.4844C408.766 44.4219 409.312 46.8281 409.312 49.7031V79H399.703V72.5781C398.172 74.9531 395.906 76.7969 392.906 78.1094C389.938 79.4219 386.734 80.0781 383.297 80.0781C381.172 80.0781 379.156 79.7812 377.25 79.1875C375.375 78.625 373.75 77.7656 372.375 76.6094C371 75.4531 369.891 74.0312 369.047 72.3438C368.234 70.625 367.828 68.6562 367.828 66.4375ZM385.781 71.4062C387.688 71.4062 389.469 71.1719 391.125 70.7031C392.812 70.2031 394.297 69.5312 395.578 68.6875C396.859 67.8125 397.859 66.7656 398.578 65.5469C399.328 64.3281 399.703 62.9844 399.703 61.5156V59.875C398.172 59.625 396.734 59.4844 395.391 59.4531C394.047 59.4219 392.859 59.4062 391.828 59.4062C387.078 59.4062 383.484 60.0312 381.047 61.2812C378.641 62.5312 377.438 64.0781 377.438 65.9219C377.438 69.5781 380.219 71.4062 385.781 71.4062ZM448.172 29.6406H436.359V17.8281H448.172V29.6406ZM457.078 79H427.734V70.2812H437.391V44.0781H427.734V35.3125H447.094V70.2812H457.078V79Z" fill="url(#paint0_linear_419_1424)"/>
<path d="M505.727 4.77273L509.705 13.5227L518.455 17.5L509.705 21.4773L505.727 30.2273L501.75 21.4773L493 17.5L501.75 13.5227L505.727 4.77273ZM505.727 12.4568L504.136 15.9091L500.684 17.5L504.136 19.0909L505.727 22.5432L507.318 19.0909L510.77 17.5L507.318 15.9091L505.727 12.4568ZM521.636 12.7273L519.632 8.36818L515.273 6.36364L519.632 4.375L521.636 0L523.625 4.375L528 6.36364L523.625 8.36818L521.636 12.7273ZM521.636 35L519.632 30.6409L515.273 28.6364L519.632 26.6477L521.636 22.2727L523.625 26.6477L528 28.6364L523.625 30.6409L521.636 35Z" fill="url(#paint1_linear_419_1424)"/>
<defs>
<linearGradient id="paint0_linear_419_1424" x1="1" y1="0" x2="146.963" y2="271.368" gradientUnits="userSpaceOnUse">
<stop offset="0.158668" stop-color="#F76A4B"/>
<stop offset="0.60652" stop-color="#A24AE7"/>
<stop offset="0.891362" stop-color="#4859F3"/>
</linearGradient>
<linearGradient id="paint1_linear_419_1424" x1="493" y1="0" x2="535.201" y2="15.9575" gradientUnits="userSpaceOnUse">
<stop offset="0.158668" stop-color="#F76A4B"/>
<stop offset="0.60652" stop-color="#A24AE7"/>
<stop offset="0.891362" stop-color="#4859F3"/>
</linearGradient>
</defs>
</svg>
